# xmcd
#
# Track frame offsets:
#	150
#	29483
#	64991
#	96527
#	131267
#	156024
#	182670
#	218953
#	253590
#	285304
#	316899
#
# Disc length: 4502 seconds
#
# Revision: 5
# Processed by: cddbd v1.5.2PL0 Copyright (c) Steve Scherf et al.
# Submitted via: EasyCDDAExtractor 2010.6.0.0
#
DISCID=9c11940b
DTITLE=OS GARGANTAS DE OURO  - VOL-08 [AO VIVO]
DYEAR=2008
DGENRE=FORRÓ CAPIXABA
TTITLE0=TÁ LIBERADO - DE MADRUGADA (BY DJ GILMAR SINISTRO)
TTITLE1=MEXENDO NO FORRÓ - INDO PRA GOIANIA - CREDO EM CRUZ AVE MARIA (BY DJ G
TTITLE1=ILMAR SINISTRO)
TTITLE2=DAMA DE VERMELHO - TÔ INDO EMBORA - TÔ POR AI (BY DJ GILMAR SINISTRO)
TTITLE3=AMOR DE PRIMAVERA - SECRETARIA (BY DJ GILMAR SINISTRO)
TTITLE4=ELA CHOROU DE AMOR - SANFONA MAIOR (BY DJ GILMAR SINISTRO)
TTITLE5=BALANÇO DE GAITEIRO - ESTRADA DA VIDA (BY DJ GILMAR SINISTRO)
TTITLE6=COBRA CRIADA - PINGA NA GARGANTA - SENHORITA (BY DJ GILMAR SINISTRO)
TTITLE7=TÔ DOIDINHO,DOIDINHO - XOTE DA ALEGRIA (BY DJ GILMAR SINISTRO)
TTITLE8=ESTOROU UM CANO - BRASIL,SAMBA E FORRÓ (BY DJ GILMAR SINISTRO)
TTITLE9=TÁ RUIM , MAIS TÁ BOM - FUI PARPANDO /SOU PEÃO (BY DJ GILMAR SINISTRO)
TTITLE10=AQUI PRA ELA - TÁ LIBERADO (BY DJ GILMAR SINISTRO)
EXTD=
EXTT0=
EXTT1=
EXTT2=
EXTT3=
EXTT4=
EXTT5=
EXTT6=
EXTT7=
EXTT8=
EXTT9=
EXTT10=
PLAYORDER=
